<svg width="1920" height="77" viewBox="0 0 1920 77" fill="none" xmlns="http://www.w3.org/2000/svg">
<rect y="6" width="1922" height="70" fill="#FCFCFC"/>
<mask id="path-2-outside-1" maskUnits="userSpaceOnUse" x="-1.5" y="1" width="1924" height="76" fill="black">
<rect fill="white" x="-1.5" y="1" width="1924" height="76"/>
<path d="M884.5 76C659.5 76 460.5 6 281.5 6C154.564 6 119.355 56 -0.5 56V2.5H1921V67H1920C1835.5 67 1821.5 20.5 1592.5 20.5C1363.5 20.5 1109.5 76 884.5 76Z"/>
</mask>
<path d="M884.5 76C659.5 76 460.5 6 281.5 6C154.564 6 119.355 56 -0.5 56V2.5H1921V67H1920C1835.5 67 1821.5 20.5 1592.5 20.5C1363.5 20.5 1109.5 76 884.5 76Z" fill="white"/>
<path d="M1921 67H1922V68H1921V67ZM1921 2.5V1.5H1922V2.5H1921ZM-0.5 2.5H-1.5V1.5H-0.5V2.5ZM-0.5 56V57H-1.5V56H-0.5ZM281.5 5C371.106 5 465.703 22.5203 565.922 40.0149C666.174 57.5152 772.096 75 884.5 75V77C771.904 77 665.826 59.4848 565.578 41.9851C465.297 24.4797 370.894 7 281.5 7V5ZM884.5 75C996.932 75 1116.62 61.1331 1236.89 47.2566C1357.12 33.3829 1477.93 19.5 1592.5 19.5V21.5C1478.07 21.5 1357.38 35.3671 1237.11 49.2434C1116.88 63.1169 997.068 77 884.5 77V75ZM1592.5 19.5C1707.08 19.5 1767.92 31.1339 1810.7 42.7851C1853.53 54.449 1877.93 66 1920 66V68C1877.57 68 1852.72 56.301 1810.17 44.7149C1767.58 33.1161 1706.92 21.5 1592.5 21.5V19.5ZM1920 66H1921V68H1920V66ZM1920 67V2.5H1922V67H1920ZM1921 3.5H-0.5V1.5H1921V3.5ZM0.5 2.5V56H-1.5V2.5H0.5ZM-0.5 55C59.2639 55 97.9051 42.5424 137.544 30.0463C177.221 17.5382 217.875 5 281.5 5V7C218.189 7 177.771 19.4618 138.145 31.9537C98.4819 44.4576 59.5914 57 -0.5 57V55Z" fill="#E1E1E1" mask="url(#path-2-outside-1)"/>
<rect width="1920" height="6" transform="matrix(1 0 0 -1 0 6)" fill="white"/>
</svg>
