<svg width="1920" height="77" viewBox="0 0 1920 77" fill="none" xmlns="http://www.w3.org/2000/svg">
<mask id="path-1-outside-1" maskUnits="userSpaceOnUse" x="-1.5" y="0" width="1924" height="76" fill="black">
<rect fill="white" x="-1.5" width="1924" height="76"/>
<path d="M884.5 1C659.5 1 460.5 71 281.5 71C154.564 71 119.355 21 -0.5 21V74.5H1921V10H1920C1835.5 10 1821.5 56.5 1592.5 56.5C1363.5 56.5 1109.5 1 884.5 1Z"/>
</mask>
<path d="M884.5 1C659.5 1 460.5 71 281.5 71C154.564 71 119.355 21 -0.5 21V74.5H1921V10H1920C1835.5 10 1821.5 56.5 1592.5 56.5C1363.5 56.5 1109.5 1 884.5 1Z" fill="white"/>
<path d="M1921 10H1922V9H1921V10ZM1921 74.5V75.5H1922V74.5H1921ZM-0.5 74.5H-1.5V75.5H-0.5V74.5ZM-0.5 21V20H-1.5V21H-0.5ZM281.5 72C371.106 72 465.703 54.4797 565.922 36.9851C666.174 19.4848 772.096 2 884.5 2V0C771.904 0 665.826 17.5152 565.578 35.0149C465.297 52.5203 370.894 70 281.5 70V72ZM884.5 2C996.932 2 1116.62 15.8669 1236.89 29.7434C1357.12 43.6171 1477.93 57.5 1592.5 57.5V55.5C1478.07 55.5 1357.38 41.6329 1237.11 27.7566C1116.88 13.8831 997.068 0 884.5 0V2ZM1592.5 57.5C1707.08 57.5 1767.92 45.8661 1810.7 34.2149C1853.53 22.551 1877.93 11 1920 11V9C1877.57 9 1852.72 20.699 1810.17 32.2851C1767.58 43.8839 1706.92 55.5 1592.5 55.5V57.5ZM1920 11H1921V9H1920V11ZM1920 10V74.5H1922V10H1920ZM1921 73.5H-0.5V75.5H1921V73.5ZM0.5 74.5V21H-1.5V74.5H0.5ZM-0.5 22C59.2639 22 97.9051 34.4576 137.544 46.9537C177.221 59.4618 217.875 72 281.5 72V70C218.189 70 177.771 57.5382 138.145 45.0463C98.4819 32.5424 59.5914 20 -0.5 20V22Z" fill="#E1E1E1" mask="url(#path-1-outside-1)"/>
<rect y="71" width="1920" height="6" fill="white"/>
</svg>
