<svg width="1920" height="77" viewBox="0 0 1920 77" fill="none" xmlns="http://www.w3.org/2000/svg">
<rect x="1" y="7" width="1922" height="70" fill="#FCFCFC"/>
<mask id="path-2-outside-1" maskUnits="userSpaceOnUse" x="-1.5" y="0" width="1924" height="76" fill="black">
<rect fill="white" x="-1.5" width="1924" height="76"/>
<path d="M1036.5 1C1261.5 1 1460.5 71 1639.5 71C1766.44 71 1801.64 21 1921.5 21V74.5L0 74.5V10H1C85.5 10 99.5 56.5 328.5 56.5C557.5 56.5 811.5 1 1036.5 1Z"/>
</mask>
<path d="M1036.5 1C1261.5 1 1460.5 71 1639.5 71C1766.44 71 1801.64 21 1921.5 21V74.5L0 74.5V10H1C85.5 10 99.5 56.5 328.5 56.5C557.5 56.5 811.5 1 1036.5 1Z" fill="white"/>
<path d="M0 10L-1 10V9H0V10ZM0 74.5V75.5H-1V74.5H0ZM1921.5 74.5H1922.5V75.5H1921.5V74.5ZM1921.5 21V20H1922.5V21H1921.5ZM1639.5 72C1549.89 72 1455.3 54.4797 1355.08 36.9851C1254.83 19.4848 1148.9 2 1036.5 2V0C1149.1 0 1255.17 17.5152 1355.42 35.0149C1455.7 52.5203 1550.11 70 1639.5 70V72ZM1036.5 2C924.068 2 804.378 15.8669 684.115 29.7434C563.876 43.6171 443.068 57.5 328.5 57.5V55.5C442.932 55.5 563.624 41.6329 683.885 27.7566C804.122 13.8831 923.932 0 1036.5 0V2ZM328.5 57.5C213.923 57.5 153.083 45.8661 110.3 34.2149C67.4695 22.551 43.0724 11 1 11V9C43.4276 9 68.2805 20.699 110.825 32.2851C153.417 43.8839 214.077 55.5 328.5 55.5V57.5ZM1 11H0V9H1V11ZM1 10V74.5H-1V10L1 10ZM0 73.5L1921.5 73.5V75.5L0 75.5V73.5ZM1920.5 74.5V21H1922.5V74.5H1920.5ZM1921.5 22C1861.74 22 1823.09 34.4576 1783.46 46.9537C1743.78 59.4618 1703.12 72 1639.5 72V70C1702.81 70 1743.23 57.5382 1782.85 45.0463C1822.52 32.5424 1861.41 20 1921.5 20V22Z" fill="#E1E1E1" mask="url(#path-2-outside-1)"/>
<rect width="1920" height="6" transform="matrix(-1 0 0 1 1921 71)" fill="white"/>
</svg>
